<svg width="63" height="46" viewBox="0 0 63 46" fill="none" xmlns="http://www.w3.org/2000/svg">
<path d="M4.79187 38.373C5.03734 38.6465 5.1681 38.9891 5.16125 39.3407C5.17377 39.57 5.12883 39.7989 5.02975 40.0105C4.93068 40.2221 4.78 40.4109 4.58888 40.563C4.11202 40.8872 3.52125 41.0457 2.92503 41.0093H-1.52588e-05V34.8769H2.86513C3.43069 34.8431 3.99177 34.9871 4.45245 35.2844C4.63748 35.4238 4.784 35.6 4.88044 35.7991C4.97688 35.9982 5.02061 36.2148 5.00817 36.4317C5.02499 36.77 4.90697 37.1026 4.6754 37.3694C4.45309 37.6131 4.14586 37.782 3.80354 37.8488C4.1916 37.9125 4.54188 38.0983 4.79187 38.373ZM1.36101 37.4473H2.58561C2.86392 37.4659 3.14035 37.3935 3.36429 37.2436C3.45623 37.1686 3.52777 37.0755 3.57336 36.9716C3.61894 36.8677 3.63736 36.7558 3.62718 36.6445C3.63582 36.5335 3.61702 36.4222 3.57214 36.3186C3.52725 36.215 3.4574 36.1217 3.36762 36.0453C3.13697 35.8911 2.85196 35.8177 2.56564 35.8386H1.36101V37.4473ZM3.48409 39.799C3.58237 39.7222 3.65963 39.6261 3.70985 39.518C3.76006 39.4099 3.78188 39.2928 3.7736 39.1759C3.78109 39.0576 3.75828 38.9394 3.70693 38.8303C3.65557 38.7212 3.57705 38.6242 3.47743 38.5468C3.23784 38.3869 2.94318 38.3084 2.64551 38.3251H1.36101V40.0117H2.66214C2.95501 40.0269 3.2449 39.9519 3.48409 39.799Z" fill="#8E8F99"/>
<path d="M10.6487 41.0093L9.0547 38.6127H8.45571V41.0093H7.0847V34.8769H9.68031C10.3346 34.8358 10.9814 35.0224 11.4872 35.3982C11.8501 35.731 12.0689 36.1696 12.1043 36.6348C12.1397 37.1001 11.9893 37.5614 11.6803 37.9357C11.36 38.2659 10.9226 38.4861 10.4424 38.5588L12.1395 41.0093H10.6487ZM8.45571 37.7769H9.57715C10.3558 37.7769 10.7452 37.4673 10.7452 36.8482C10.7531 36.7217 10.7318 36.5952 10.6825 36.4766C10.6332 36.358 10.5571 36.2499 10.459 36.1591C10.2129 35.9749 9.89601 35.8855 9.57715 35.9105H8.4424L8.45571 37.7769Z" fill="#8E8F99"/>
<path d="M18.1426 39.7752H15.4105L14.928 41.0094H13.4905L15.9995 34.9459H17.5536L20.0527 41.0094H18.6151L18.1426 39.7752ZM17.7765 38.8465L16.7782 36.2581L15.7799 38.8465H17.7765Z" fill="#8E8F99"/>
<path d="M27.5234 41.0094H26.1624L23.1109 36.8392V41.0094H21.7532V34.877H23.1109L26.1624 39.0711V34.877H27.5234V41.0094Z" fill="#8E8F99"/>
<path d="M35.2903 39.5415C35.0089 40.0045 34.5801 40.3811 34.059 40.6229C33.4665 40.8923 32.8091 41.0251 32.1456 41.0094H29.723V34.877H32.1456C32.8079 34.8614 33.4646 34.991 34.059 35.2545C34.58 35.4908 35.0092 35.8637 35.2903 36.324C35.5704 36.8227 35.7164 37.3738 35.7164 37.9327C35.7164 38.4916 35.5704 39.0427 35.2903 39.5415ZM33.7329 39.3947C34.1213 38.9873 34.3349 38.4681 34.3349 37.9312C34.3349 37.3943 34.1213 36.8752 33.7329 36.4678C33.2634 36.0988 32.6511 35.9114 32.0291 35.9465H31.084V39.9159H32.0291C32.6511 39.951 33.2634 39.7637 33.7329 39.3947Z" fill="#8E8F99"/>
<path d="M18.9945 0.766724C18.9945 0.766724 36.5614 6.73736 36.1887 15.3773V29.9908C36.1887 29.9908 18.6351 24.0172 19.0012 15.3773L18.9945 0.766724Z" fill="#8E8F99"/>
<path d="M51.8389 26.5694C55.1565 24.5139 58.9941 23.2408 63 22.8666V18.292C58.3842 19.8935 54.4686 22.7975 51.8389 26.5694Z" fill="#8E8F99"/>
<path d="M49.8456 27.9478C52.561 23.0253 57.2686 19.2268 63 17.3336V4.1521C63 4.1521 37.9823 12.6572 38.5114 24.9609V45.7668C38.5114 45.7668 39.6262 45.3863 41.3799 44.6733C41.3799 44.0083 41.3799 43.3372 41.4598 42.6631C41.9775 36.9511 44.9939 31.6581 49.8456 27.9478Z" fill="#8E8F99"/>
<path d="M47.4663 35.6769C47.5977 34.234 47.891 32.8067 48.3415 31.4169C45.3205 34.6211 43.491 38.5971 43.1104 42.7859C43.0738 43.1814 43.0538 43.5768 43.0438 43.9843C44.4647 43.3701 46.1186 42.6032 47.8557 41.7015C47.4124 39.7197 47.2813 37.6916 47.4663 35.6769Z" fill="#8E8F99"/>
<path d="M48.4612 35.7519C48.2947 37.5746 48.3987 39.4092 48.7707 41.2072C55.6058 37.5254 63.2861 31.8363 62.99 24.961V24.3618C58.1065 24.8537 53.5376 26.7756 49.9853 29.8321C49.1536 31.7263 48.6399 33.7214 48.4612 35.7519Z" fill="#8E8F99"/>
</svg>
